# xmcd
#
# Track frame offsets:
#	183
#	17175
#	32838
#	47480
#	68620
#	79633
#	93558
#	108793
#	127743
#	147870
#	160768
#	180840
#	192813
#
# Disc length: 2941 seconds
#
# Revision: 1
# Processed by: cddbd v1.5.1PL2 Copyright (c) Steve Scherf et al.
# Submitted via: audiograbber 1.83.01
#
DISCID=940b7b0d
DTITLE=Back Yard Company - Sticks and Stones
DYEAR=1993
DGENRE=Blues
TTITLE0=Asia
TTITLE1=The Mask
TTITLE2=Gonna have to say goodbye
TTITLE3=Broken Love Song
TTITLE4=Sticks and Stones
TTITLE5=Roy Black died Tonight
TTITLE6=Feelin' good
TTITLE7=Flying
TTITLE8=Just want some Rock'n'Roll
TTITLE9=Crazy Jamie
TTITLE10=Blues
TTITLE11=Back yard Company
TTITLE12=Now that it's all over
EXTD=
EXTT0=
EXTT1=
EXTT2=
EXTT3=
EXTT4=
EXTT5=
EXTT6=
EXTT7=
EXTT8=
EXTT9=
EXTT10=
EXTT11=
EXTT12=
PLAYORDER=
